<svg width="45" height="46" viewBox="0 0 45 46" fill="none" xmlns="http://www.w3.org/2000/svg">
<path d="M7.25806 14.4655C8.86391 14.4655 10.1613 15.8524 10.1613 17.569V42.3966C10.1613 44.1131 8.86391 45.5 7.25806 45.5H2.90323C1.29738 45.5 0 44.1131 0 42.3966V17.569C0 15.8524 1.29738 14.4655 2.90323 14.4655H7.25806ZM24.5504 0.5C27.0272 0.5 29.0323 2.64332 29.0323 5.29095V5.69828C29.0323 6.35776 28.9143 7.01724 28.6875 7.62823L26.129 14.4655H40.6452C43.0494 14.4655 45 16.5506 45 19.1207C45 21.0313 43.9204 22.6703 42.378 23.3879C43.9204 24.1056 45 25.7446 45 27.6552C45 29.9246 43.4758 31.8157 41.4617 32.2231C41.8609 32.931 42.0968 33.7554 42.0968 34.6379C42.0968 36.7909 40.7359 38.5948 38.8851 39.1282C39.0847 39.6616 39.1935 40.2435 39.1935 40.8448C39.1935 43.4149 37.2429 45.5 34.8387 45.5H26.8639C23.5706 45.5 20.3679 44.2974 17.8004 42.0959L16.6935 41.1552C15.3145 39.9817 14.5161 38.1972 14.5161 36.306V18.2091C14.5161 16.764 14.8337 15.3384 15.4325 14.0485L20.5312 3.14763C21.2933 1.52802 22.8448 0.5 24.5504 0.5Z" fill="#F6B741"/>
</svg>
