<svg width="12" height="11" viewBox="0 0 12 11" fill="none" xmlns="http://www.w3.org/2000/svg">
<path d="M2.27419 3.41379C2.66673 3.41379 2.98387 3.7528 2.98387 4.17241V10.2414C2.98387 10.661 2.66673 11 2.27419 11H1.20968C0.817137 11 0.5 10.661 0.5 10.2414V4.17241C0.5 3.7528 0.817137 3.41379 1.20968 3.41379H2.27419ZM6.50121 0C7.10665 0 7.59677 0.523922 7.59677 1.17112V1.27069C7.59677 1.4319 7.56794 1.5931 7.5125 1.74246L6.8871 3.41379H10.4355C11.0232 3.41379 11.5 3.92349 11.5 4.55172C11.5 5.01875 11.2361 5.4194 10.8591 5.59483C11.2361 5.77026 11.5 6.17091 11.5 6.63793C11.5 7.19267 11.1274 7.65496 10.6351 7.75453C10.7327 7.92759 10.7903 8.1291 10.7903 8.34483C10.7903 8.87112 10.4577 9.31207 10.0052 9.44246C10.054 9.57284 10.0806 9.71509 10.0806 9.86207C10.0806 10.4903 9.60383 11 9.01613 11H7.06673C6.26169 11 5.47883 10.706 4.85121 10.1679L4.58065 9.93793C4.24355 9.65108 4.04839 9.21487 4.04839 8.75259V4.32888C4.04839 3.97565 4.12601 3.62716 4.27238 3.31185L5.51875 0.647198C5.70504 0.251293 6.08427 0 6.50121 0Z" fill="#757575"/>
</svg>
