<svg width="30" height="26" viewBox="0 0 30 26" fill="none" xmlns="http://www.w3.org/2000/svg">
<path d="M29.9921 12.9721C29.9921 13.886 29.2107 14.6018 28.325 14.6018H26.6579L26.6944 22.7354C26.6944 22.8725 26.684 23.0096 26.6684 23.1467V23.9691C26.6684 25.0912 25.7358 26 24.5845 26H23.7509C23.6936 26 23.6363 26 23.579 25.9949C23.5061 26 23.4331 26 23.3602 26L21.6671 25.9949H20.4167C19.2654 25.9949 18.3329 25.0861 18.3329 23.9641V22.7456V19.4962C18.3329 18.5975 17.5879 17.8715 16.6658 17.8715H13.3316C12.4095 17.8715 11.6645 18.5975 11.6645 19.4962V22.7456V23.9641C11.6645 25.0861 10.7319 25.9949 9.5806 25.9949H8.33028H6.66839C6.59025 25.9949 6.5121 25.9898 6.43396 25.9848C6.37144 25.9898 6.30892 25.9949 6.24641 25.9949H5.41286C4.26152 25.9949 3.32899 25.0861 3.32899 23.9641V18.2777C3.32899 18.232 3.32899 18.1812 3.3342 18.1355V14.5968H1.6671C0.729355 14.5968 0 13.886 0 12.967C0 12.5101 0.15629 12.1039 0.520968 11.7485L13.8734 0.406171C14.2381 0.0507713 14.6548 0 15.0195 0C15.3842 0 15.801 0.101543 16.1135 0.355399L29.4191 11.7536C29.8358 12.109 30.0442 12.5151 29.9921 12.9721Z" fill="#8B4158"/>
</svg>
