<svg width="31" height="30" viewBox="0 0 31 30" fill="none" xmlns="http://www.w3.org/2000/svg">
<path d="M15.5005 0C16.0409 0 16.5343 0.304665 16.7693 0.790956L20.7987 9.06963L29.7974 10.3937C30.326 10.4699 30.7665 10.839 30.931 11.3488C31.0955 11.8585 30.9604 12.4092 30.5845 12.7842L24.0587 19.2407L25.5976 28.3572C25.6857 28.8845 25.4684 29.4177 25.0278 29.7341C24.5873 30.0505 24.0117 30.0856 23.5418 29.8337L15.4946 25.545L7.45926 29.8278C6.98348 30.0798 6.40785 30.0446 5.97319 29.7282C5.53852 29.4118 5.31532 28.8787 5.40343 28.3514L6.94237 19.2349L0.416561 12.7842C0.0347634 12.4092 -0.0944605 11.8526 0.0700063 11.3488C0.234473 10.8449 0.675009 10.4758 1.20365 10.3937L10.2023 9.06963L14.2318 0.790956C14.4726 0.304665 14.9601 0 15.5005 0ZM15.5005 4.62856L12.4168 10.9679C12.2112 11.3839 11.8176 11.6769 11.3536 11.7472L4.40488 12.7666L9.45048 17.7526C9.77354 18.0748 9.92626 18.5318 9.8499 18.9829L8.65752 25.9961L14.8368 22.7034C15.2538 22.4807 15.7531 22.4807 16.1643 22.7034L22.3435 25.9961L21.157 18.9888C21.0806 18.5377 21.2275 18.0807 21.5564 17.7584L26.602 12.7725L19.6533 11.7472C19.1951 11.6769 18.7957 11.3898 18.5901 10.9679L15.5005 4.62856Z" fill="#757575"/>
</svg>
