<svg width="30" height="30" viewBox="0 0 30 30" fill="none" xmlns="http://www.w3.org/2000/svg">
<path d="M27.0375 1.83217C27.0375 1.1979 26.7365 0.60934 26.2348 0.27792C25.7331 -0.0534997 25.1153 -0.0877845 24.5925 0.197922L18.4563 3.51784L8.98257 0.0950676C8.55483 -0.059214 8.09541 -0.024929 7.69407 0.192208L0.934694 3.84926C0.359092 4.16353 0 4.7978 0 5.48921V25.603C0 26.2372 0.301003 26.8258 0.802675 27.1572C1.30435 27.4886 1.9222 27.5229 2.44499 27.2372L8.57596 23.9173L17.7275 27.2201C17.5004 26.8544 17.2786 26.4715 17.0621 26.083C16.4813 25.0373 15.9057 23.8373 15.4779 22.5516L10.1338 20.626V4.36924L16.8932 6.80918V12.4833C18.5302 10.4377 20.9593 9.14626 23.6525 9.14626C24.846 9.14626 25.9866 9.39768 27.0322 9.86053L27.0375 1.83217ZM23.6578 11.889C20.1567 11.889 17.3209 14.9061 17.3209 18.626C17.3209 22.5631 20.7059 27.2201 22.5277 29.4429C23.1403 30.1857 24.1806 30.1857 24.7932 29.4429C26.615 27.2201 30 22.5631 30 18.626C30 14.9061 27.1642 11.889 23.6631 11.889H23.6578ZM21.5455 18.746C21.5455 17.4832 22.4908 16.4604 23.6578 16.4604C24.8249 16.4604 25.7701 17.4832 25.7701 18.746C25.7701 20.0088 24.8249 21.0317 23.6578 21.0317C22.4908 21.0317 21.5455 20.0088 21.5455 18.746Z" fill="#8B4158"/>
</svg>
