<svg width="16" height="17" viewBox="0 0 16 17" fill="none" xmlns="http://www.w3.org/2000/svg">
<path d="M13 6.90625C13 8.43027 12.5344 9.83809 11.75 10.9803L15.7062 15.1871C16.0969 15.6021 16.0969 16.2762 15.7062 16.6912C15.3156 17.1063 14.6812 17.1063 14.2906 16.6912L10.3344 12.4844C9.25937 13.3211 7.93437 13.8125 6.5 13.8125C2.90937 13.8125 0 10.7213 0 6.90625C0 3.09121 2.90937 0 6.5 0C10.0906 0 13 3.09121 13 6.90625ZM6.5 11.6875C7.09095 11.6875 7.67611 11.5638 8.22207 11.3235C8.76804 11.0833 9.26412 10.7311 9.68198 10.2871C10.0998 9.84312 10.4313 9.31604 10.6575 8.73596C10.8836 8.15587 11 7.53413 11 6.90625C11 6.27837 10.8836 5.65663 10.6575 5.07654C10.4313 4.49646 10.0998 3.96938 9.68198 3.5254C9.26412 3.08142 8.76804 2.72923 8.22207 2.48895C7.67611 2.24867 7.09095 2.125 6.5 2.125C5.90905 2.125 5.32389 2.24867 4.77792 2.48895C4.23196 2.72923 3.73588 3.08142 3.31802 3.5254C2.90016 3.96938 2.56869 4.49646 2.34254 5.07654C2.1164 5.65663 2 6.27837 2 6.90625C2 7.53413 2.1164 8.15587 2.34254 8.73596C2.56869 9.31604 2.90016 9.84312 3.31802 10.2871C3.73588 10.7311 4.23196 11.0833 4.77792 11.3235C5.32389 11.5638 5.90905 11.6875 6.5 11.6875Z" fill="#757575"/>
</svg>
